# xmcd
#
# Track frame offsets: 
#        150
#        4275
#        25466
#        35992
#        56890
#        62636
#        66773
#        84920
#        95992
#        114738
#        121977
#        126745
#        150508
#        161903
#        178157
#        186522
#        190602
#        213450
#        225204
#        239743
#        244232
#        250270
#        254768
#        277142
#        286054
#        306733
#        313861
#        319517
#
# Disc length: 4322 seconds
#
# Revision: 0
# Processed by: cddbd v1.5.2PL0 Copyright (c) Steve Scherf et al.
# Submitted via: ExactAudioCopy v1.0b1
#
DISCID=bb10e01c
DTITLE=Various Artist - The Complete Mother's Best Recordings CD13
DYEAR=2010
DGENRE=Country
TTITLE0=Introduction
TTITLE1=California Zephyr
TTITLE2=Jerry Rivers and the Drifting Cowboys: Down Yonder
TTITLE3=Softly and Tenderly
TTITLE4=Closing
TTITLE5=Introduction
TTITLE6=Lonesome Whistle
TTITLE7=Don Helms and the Drifting Cowboys: Roadside Rag
TTITLE8=I Am Bound for the Promised Land
TTITLE9=Closing
TTITLE10=Introduction
TTITLE11=Have I Told You Lately that I Love You
TTITLE12=Jerry Rivers and the Drifting Cowboys: Sally Goodin
TTITLE13=When the Saints Go Marchin’ in
TTITLE14=Closing
TTITLE15=Introduction
TTITLE16=Hey, Good Lookin’
TTITLE17=The Drifting Cowboys: Silver Bell
TTITLE18=I’m Gonna Sing
TTITLE19=Jerry Rivers and the Drifting Cowboys: Turkey in the Straw
TTITLE20=Closing
TTITLE21=Introduction
TTITLE22=I Can’t Help It (If I’m Still in Love with You)
TTITLE23=Jerry Rivers and the Drifting Cowboys: Dance All Night
TTITLE24=Oh, Those Tombs (Lonely Tombs)
TTITLE25=Closing
TTITLE26=Introduction
TTITLE27=Crazy Heart (incomplete)
EXTD=
EXTT0=
EXTT1=
EXTT2=
EXTT3=
EXTT4=
EXTT5=
EXTT6=
EXTT7=
EXTT8=
EXTT9=
EXTT10=
EXTT11=
EXTT12=
EXTT13=
EXTT14=
EXTT15=
EXTT16=
EXTT17=
EXTT18=
EXTT19=
EXTT20=
EXTT21=
EXTT22=
EXTT23=
EXTT24=
EXTT25=
EXTT26=
EXTT27=
PLAYORDER=
